<svg width="739.2913085937499px" height="110.01523437499999px" xmlns="http://www.w3.org/2000/svg" viewBox="-119.64565429687497 19.992382812500004 739.2913085937499 110.01523437499999" style="background: rgba(0, 0, 0, 0);" preserveAspectRatio="xMidYMid"><defs><filter id="editing-neon" x="-100%" y="-100%" width="300%" height="300%"><feFlood flood-color="#00ff2f" result="flood"></feFlood><feComposite operator="in" in="flood" in2="SourceAlpha" result="color"></feComposite><feFlood flood-color="#00ff2f" result="flood2"></feFlood><feComposite operator="in" in="flood2" in2="SourceAlpha" result="color2"></feComposite><feMorphology operator="dilate" radius="2" in="color" result="dilate"></feMorphology><feGaussianBlur stdDeviation="6" in="color" result="blur1"></feGaussianBlur><feGaussianBlur stdDeviation="2.5" in="color" result="blur2"></feGaussianBlur><feGaussianBlur stdDeviation="1" in="SourceAlpha" result="blur3"></feGaussianBlur><feGaussianBlur stdDeviation="6" in="dilate" result="blur4"></feGaussianBlur><feConvolveMatrix in="color2" result="conv" order="3,3" divisor="1" kernelMatrix="1 1 1  1 1 1  1 1 1"></feConvolveMatrix><feMerge><feMergeNode in="blur1"></feMergeNode><feMergeNode in="blur2"></feMergeNode><feMergeNode in="blur4"></feMergeNode><feMergeNode in="blur3"></feMergeNode><feMergeNode in="blur3"></feMergeNode><feMergeNode in="blur3"></feMergeNode><feMergeNode in="blur3"></feMergeNode><feMergeNode in="conv"></feMergeNode><feMergeNode in="SourceGraphic"></feMergeNode></feMerge></filter></defs><g filter="url(#editing-neon)"><g transform="translate(-10.3203125, 103.875)"><path d="M57.75-8.25L16.50-8.25L16.50-16.50L8.25-16.50L8.25-24.75L0-24.75L0-49.50L8.25-49.50L8.25-57.75L16.50-57.75L16.50-66L57.75-66L57.75-57.75L24.75-57.75L24.75-49.50L16.50-49.50L16.50-24.75L24.75-24.75L24.75-16.50L41.25-16.50L41.25-33L33-33L33-41.25L57.75-41.25L57.75-8.25ZM123.75-8.25L74.25-8.25L74.25-16.50L66-16.50L66-24.75L74.25-24.75L74.25-33L107.25-33L107.25-41.25L74.25-41.25L74.25-49.50L115.50-49.50L115.50-41.25L123.75-41.25L123.75-8.25ZM82.50-24.75L82.50-16.50L107.25-16.50L107.25-24.75L82.50-24.75ZM140.25-8.25L132-8.25L132-49.50L181.50-49.50L181.50-41.25L189.75-41.25L189.75-8.25L173.25-8.25L173.25-41.25L165-41.25L165-8.25L148.50-8.25L148.50-41.25L140.25-41.25L140.25-8.25ZM247.50-8.25L206.25-8.25L206.25-16.50L198-16.50L198-41.25L206.25-41.25L206.25-49.50L247.50-49.50L247.50-41.25L255.75-41.25L255.75-24.75L214.50-24.75L214.50-16.50L247.50-16.50L247.50-8.25ZM214.50-41.25L214.50-33L239.25-33L239.25-41.25L214.50-41.25ZM280.50-8.25L264-8.25L264-66L313.50-66L313.50-57.75L321.75-57.75L321.75-33L305.25-33L305.25-24.75L313.50-24.75L313.50-16.50L321.75-16.50L321.75-8.25L297-8.25L297-16.50L288.75-16.50L288.75-24.75L280.50-24.75L280.50-8.25ZM280.50-57.75L280.50-33L297-33L297-41.25L305.25-41.25L305.25-57.75L280.50-57.75ZM379.50-8.25L338.25-8.25L338.25-16.50L330-16.50L330-41.25L338.25-41.25L338.25-49.50L379.50-49.50L379.50-41.25L387.75-41.25L387.75-16.50L379.50-16.50L379.50-8.25ZM346.50-41.25L346.50-16.50L371.25-16.50L371.25-41.25L346.50-41.25ZM445.50-8.25L404.25-8.25L404.25-16.50L396-16.50L396-41.25L404.25-41.25L404.25-49.50L445.50-49.50L445.50-41.25L453.75-41.25L453.75-16.50L445.50-16.50L445.50-8.25ZM412.50-41.25L412.50-16.50L437.25-16.50L437.25-41.25L412.50-41.25ZM470.25-8.25L462-8.25L462-49.50L511.50-49.50L511.50-41.25L519.75-41.25L519.75-8.25L503.25-8.25L503.25-41.25L495-41.25L495-8.25L478.50-8.25L478.50-41.25L470.25-41.25L470.25-8.25Z" fill="none" stroke="#e9ffd4" stroke-width="2.7"></path></g></g><style>text {
  font-size: 64px;
  font-family: Arial Black;
  dominant-baseline: central;
  text-anchor: middle;
}</style></svg>